<?xml version='1.0' encoding='iso-8859-1'?>
<!-- Uploaded to: SVG Repo, www.svgrepo.com, Generator: SVG Repo Mixer Tools -->
<svg fill="#000000" height="800px" width="800px" version="1.1" xmlns="http://www.w3.org/2000/svg" viewBox="0 0 470 470" xmlns:xlink="http://www.w3.org/1999/xlink" enable-background="new 0 0 470 470">
  <g>
    <path d="M215,0H91.595c-4.142,0-7.5,3.358-7.5,7.5v242.065c0,35.624,27.06,65.038,61.702,68.789v110.994   c-22.62,1.815-44.017,11.772-59.603,27.948c-2.087,2.167-2.678,5.37-1.501,8.138c1.177,2.769,3.894,4.566,6.902,4.566H215   c3.008,0,5.725-1.797,6.902-4.566c1.177-2.768,0.586-5.972-1.501-8.138c-15.586-16.176-36.983-26.133-59.604-27.948V318.354   c34.643-3.752,61.703-33.165,61.703-68.789V7.5C222.5,3.358,219.142,0,215,0z M113.108,455   c11.994-7.082,25.919-10.957,40.189-10.957s28.196,3.875,40.189,10.957H113.108z M207.5,249.565   c0,29.888-24.315,54.203-54.203,54.203s-54.202-24.315-54.202-54.203V15H207.5V249.565z"/>
    <path d="m185,232.065c-4.142,0-7.5,3.358-7.5,7.5v10c0,13.345-10.857,24.203-24.203,24.203-4.142,0-7.5,3.358-7.5,7.5s3.358,7.5 7.5,7.5c21.616,0 39.203-17.586 39.203-39.203v-10c0-4.142-3.358-7.5-7.5-7.5z"/>
    <path d="m121.595,83.104h55.905v126.46c0,4.142 3.358,7.5 7.5,7.5s7.5-3.358 7.5-7.5v-133.96c0-4.142-3.358-7.5-7.5-7.5h-63.405c-4.142,0-7.5,3.358-7.5,7.5s3.358,7.5 7.5,7.5z"/>
    <circle cx="129.095" cy="113.104" r="7.5"/>
    <circle cx="129.095" cy="143.104" r="7.5"/>
    <path d="m385.905,249.565v-242.065c0-4.142-3.358-7.5-7.5-7.5h-123.405c-4.142,0-7.5,3.358-7.5,7.5v242.065c0,35.624 27.06,65.038 61.703,68.789v110.994c-22.62,1.815-44.017,11.772-59.604,27.948-2.087,2.167-2.678,5.37-1.501,8.138 1.177,2.769 3.894,4.566 6.902,4.566h123.405c3.008,0 5.725-1.797 6.902-4.566 1.177-2.768 0.586-5.972-1.501-8.138-15.586-16.176-36.983-26.133-59.603-27.948v-110.994c34.642-3.751 61.702-33.165 61.702-68.789zm-123.405,0v-234.565h108.405v234.565c0,29.888-24.315,54.203-54.202,54.203s-54.203-24.315-54.203-54.203zm14.013,205.435c11.994-7.082 25.919-10.957 40.189-10.957s28.195,3.875 40.189,10.957h-80.378z"/>
    <path d="m355.905,249.565v-10c0-4.142-3.358-7.5-7.5-7.5s-7.5,3.358-7.5,7.5v10c0,13.345-10.857,24.203-24.203,24.203-4.142,0-7.5,3.358-7.5,7.5s3.358,7.5 7.5,7.5c21.617,0 39.203-17.587 39.203-39.203z"/>
    <path d="m340.905,83.104v126.46c0,4.142 3.358,7.5 7.5,7.5s7.5-3.358 7.5-7.5v-133.96c0-4.142-3.358-7.5-7.5-7.5h-63.405c-4.142,0-7.5,3.358-7.5,7.5s3.358,7.5 7.5,7.5h55.905z"/>
    <circle cx="292.5" cy="193.104" r="7.5"/>
  </g>
</svg>